<?xml version="1.0" encoding="utf-8"?>
<!-- Generator: Adobe Illustrator 24.0.1, SVG Export Plug-In . SVG Version: 6.00 Build 0)  -->
<svg version="1.1" id="Layer_1" xmlns="http://www.w3.org/2000/svg" xmlns:xlink="http://www.w3.org/1999/xlink" x="0px" y="0px"
	 viewBox="0 0 43 43" style="enable-background:new 0 0 43 43;" xml:space="preserve">
<style type="text/css">
	.st0{opacity:0.2;enable-background:new    ;}
	.st1{enable-background:new    ;}
	.st2{fill:#FFFFFF;}
</style>
<g id="Facebook" transform="translate(-1471.429 -2636.999)">
	<circle id="Ellipse_1_copy_2" class="st0" cx="1492.9" cy="2658.5" r="21.5"/>
	<g class="st1">
		<path class="st2" d="M1501.4,2651.5v14.8c0,0.2-0.1,0.5-0.3,0.6c-0.2,0.2-0.4,0.3-0.7,0.3h-4.2v-6.5h2.2l0.3-2.5h-2.5v-1.6
			c0-0.4,0.1-0.7,0.2-0.9c0.2-0.2,0.5-0.3,1-0.3h1.3v-2.3c-0.5,0-1.2-0.1-1.9-0.1c-1,0-1.7,0.3-2.3,0.9c-0.6,0.6-0.9,1.4-0.9,2.4
			v1.9h-2.2v2.5h2.2v6.5h-7.9c-0.3,0-0.5-0.1-0.7-0.3c-0.2-0.2-0.3-0.4-0.3-0.6v-14.8c0-0.3,0.1-0.5,0.3-0.7
			c0.2-0.2,0.4-0.3,0.7-0.3h14.8c0.2,0,0.5,0.1,0.6,0.3C1501.3,2651,1501.4,2651.2,1501.4,2651.5z"/>
	</g>
</g>
</svg>
