<?xml version="1.0" encoding="utf-8"?>
<!-- Generator: Adobe Illustrator 24.0.1, SVG Export Plug-In . SVG Version: 6.00 Build 0)  -->
<svg version="1.1" id="Layer_1" xmlns="http://www.w3.org/2000/svg" xmlns:xlink="http://www.w3.org/1999/xlink" x="0px" y="0px"
	 viewBox="0 0 43 43" style="enable-background:new 0 0 43 43;" xml:space="preserve">
<style type="text/css">
	.st0{opacity:0.2;enable-background:new    ;}
	.st1{enable-background:new    ;}
	.st2{fill:#FFFFFF;}
</style>
<g id="instagram" transform="translate(-1532.429 -2636.999)">
	<circle id="Ellipse_1_copy_4" class="st0" cx="1553.9" cy="2658.5" r="21.5"/>
	<g class="st1">
		<path class="st2" d="M1562.4,2658.9c0,1.6,0,2.8-0.1,3.5s-0.1,1.3-0.3,1.8c-0.2,0.6-0.6,1.2-1,1.6s-1,0.8-1.6,1
			c-0.5,0.2-1.1,0.3-1.8,0.3s-1.9,0.1-3.5,0.1c-1.6,0-2.8,0-3.5-0.1s-1.3-0.2-1.8-0.4c-0.6-0.2-1.2-0.5-1.6-1c-0.5-0.5-0.8-1-1-1.6
			c-0.2-0.5-0.3-1.1-0.3-1.8s-0.1-1.9-0.1-3.5c0-1.6,0-2.8,0.1-3.5s0.1-1.3,0.3-1.8c0.2-0.6,0.6-1.2,1-1.6c0.5-0.5,1-0.8,1.6-1
			c0.5-0.2,1.1-0.3,1.8-0.3s1.9-0.1,3.5-0.1c1.6,0,2.8,0,3.5,0.1s1.3,0.1,1.8,0.3c0.6,0.2,1.2,0.6,1.6,1c0.5,0.5,0.8,1,1,1.6
			c0.2,0.5,0.3,1.1,0.3,1.9C1562.4,2656.1,1562.4,2657.3,1562.4,2658.9z M1560.9,2661.8c0-0.5,0-1.3,0-2.3v-1.2c0-1,0-1.8,0-2.3
			c0-0.9-0.1-1.6-0.3-2c-0.3-0.8-0.8-1.3-1.6-1.6c-0.4-0.1-1.1-0.2-2-0.3c-0.5,0-1.3,0-2.3,0h-1.2c-1,0-1.8,0-2.3,0
			c-0.9,0-1.6,0.1-2,0.3c-0.8,0.3-1.3,0.8-1.6,1.6c-0.1,0.4-0.2,1.1-0.3,2c0,0.5,0,1.3,0,2.3v1.2c0,1,0,1.8,0,2.3
			c0,0.9,0.1,1.6,0.3,2c0.3,0.8,0.9,1.3,1.6,1.6c0.4,0.1,1.1,0.2,2,0.3c0.5,0,1.3,0,2.3,0h1.2c1,0,1.8,0,2.3,0c0.9,0,1.6-0.1,2-0.3
			c0.8-0.3,1.3-0.9,1.6-1.6C1560.8,2663.4,1560.9,2662.7,1560.9,2661.8z M1556.3,2655.2c0.7,0.4,1.2,0.9,1.6,1.6
			c0.4,0.7,0.6,1.4,0.6,2.1c0,0.8-0.2,1.5-0.6,2.1c-0.4,0.7-0.9,1.2-1.6,1.6c-0.7,0.4-1.4,0.6-2.1,0.6c-0.8,0-1.5-0.2-2.1-0.6
			c-0.7-0.4-1.2-0.9-1.6-1.6c-0.4-0.7-0.6-1.4-0.6-2.1c0-0.8,0.2-1.5,0.6-2.1c0.4-0.7,0.9-1.2,1.6-1.6c0.7-0.4,1.4-0.6,2.1-0.6
			C1554.9,2654.6,1555.6,2654.8,1556.3,2655.2z M1556.1,2660.8c0.5-0.5,0.8-1.2,0.8-2c0-0.8-0.3-1.4-0.8-2c-0.5-0.5-1.2-0.8-2-0.8
			c-0.8,0-1.4,0.3-2,0.8c-0.5,0.5-0.8,1.2-0.8,2c0,0.8,0.3,1.4,0.8,2c0.5,0.5,1.2,0.8,2,0.8
			C1554.9,2661.7,1555.5,2661.4,1556.1,2660.8z M1559.3,2653.7c-0.2-0.2-0.4-0.3-0.7-0.3c-0.3,0-0.5,0.1-0.7,0.3
			c-0.2,0.2-0.3,0.4-0.3,0.7c0,0.3,0.1,0.5,0.3,0.7c0.2,0.2,0.4,0.3,0.7,0.3c0.3,0,0.5-0.1,0.7-0.3c0.2-0.2,0.3-0.4,0.3-0.7
			C1559.6,2654.1,1559.5,2653.9,1559.3,2653.7z"/>
	</g>
</g>
</svg>
