<svg xmlns="http://www.w3.org/2000/svg" width="43" height="43" viewBox="0 0 43 43">
    <g transform="translate(-1410.429 -2636.999)">
        <circle cx="21.5" cy="21.5" r="21.5" opacity="0.2" transform="translate(1410.429 2636.999)"/>
        <path fill="#fff" d="M5.294 14H2.978V6.518h2.316zm.231-9.86A1.356 1.356 0 1 0 4.17 5.492a1.357 1.357 0 0 0 1.355-1.356zm8.437 5.746c0-2.007-.424-3.5-2.769-3.5A2.4 2.4 0 0 0 9 7.535V6.518H6.75V14H9v-3.717c0-.972.247-1.914 1.453-1.914 1.189 0 1.227 1.112 1.227 1.976V14h2.283zm2.978 5.073V1.985A1.987 1.987 0 0 0 14.955 0H1.985A1.987 1.987 0 0 0 0 1.985v12.97a1.987 1.987 0 0 0 1.985 1.985h12.97a1.987 1.987 0 0 0 1.985-1.985zM14.955 1.323a.662.662 0 0 1 .662.662v12.97a.662.662 0 0 1-.662.662H1.985a.662.662 0 0 1-.662-.662V1.985a.662.662 0 0 1 .662-.662zm0 0" transform="translate(1423.644 2650.643)"/>
    </g>
</svg>
