<svg xmlns="http://www.w3.org/2000/svg" width="80.826" height="75.966" viewBox="0 0 80.826 75.966">
    <defs>
        <linearGradient id="linear-gradient" x1=".5" x2=".5" y1="1" gradientUnits="objectBoundingBox">
            <stop offset="0" stop-color="#d9271f"/>
            <stop offset="1" stop-color="#f6a100"/>
        </linearGradient>
        <style>
            .cls-1{fill:url(#linear-gradient)}.cls-3{fill:#fff}
        </style>
    </defs>
    <g id="Logo" transform="translate(-308 -772)">
        <g id="Group_9471" transform="translate(308 772)">
            <path id="Path_17358" d="M257.5 115.622a18.816 18.816 0 0 0-25.759-17.246l-42.735 16.79A18.867 18.867 0 0 0 180 142.914c2.73 4.332 5.94 9.562 9.529 15.674a29.079 29.079 0 0 0 20.785 14.112 28.379 28.379 0 0 0 12.7-.927c9.051-2.622 16.5-4.872 22.048-6.8a18.781 18.781 0 0 0 12.758-18.008zm-13.2 47.11c-4.925 1.71-11.689 3.794-21.945 6.765l-.043.013a25.816 25.816 0 0 1-7.652 1.154 26.3 26.3 0 0 1-3.988-.305 26.734 26.734 0 0 1-19.1-12.966c-3.176-5.409-6.4-10.7-9.57-15.741a16.5 16.5 0 0 1 7.851-24.272l42.753-16.8a16.276 16.276 0 0 1 6.01-1.145 16.859 16.859 0 0 1 9.231 2.771 16.51 16.51 0 0 1 7.281 13.443l.322 31.341a16.411 16.411 0 0 1-11.15 15.741z" class="cls-1" transform="translate(-176.999 -97.067)"/>
            <g id="Group_9470" transform="translate(11.385 23.164)">
                <path id="Path_17359" fill="#cccaca" d="M308.7 198.132a10.882 10.882 0 0 1-7.778-5.281c-1.343-2.287-2.544-4.244-3.566-5.865a7.061 7.061 0 0 1 3.371-10.384l15.992-6.283a7.041 7.041 0 0 1 9.639 6.454l.121 11.73a7.029 7.029 0 0 1-4.774 6.739c-2.076.721-4.864 1.563-8.251 2.544a10.619 10.619 0 0 1-4.754.346z" opacity="0.5" transform="translate(-267.676 -168.618)"/>
                <path id="Path_17360" d="M309.883 194.518a10.881 10.881 0 0 1-7.778-5.281c-1.343-2.287-2.544-4.244-3.566-5.865a7.061 7.061 0 0 1 3.371-10.384l15.992-6.283a7.042 7.042 0 0 1 9.64 6.454l.12 11.73a7.028 7.028 0 0 1-4.774 6.739c-2.076.721-4.863 1.563-8.25 2.544a10.624 10.624 0 0 1-4.755.346z" class="cls-1" transform="translate(-268.463 -166.215)"/>
                <path id="Path_17361" d="M213.5 198.01a4.526 4.526 0 0 0 4.519 4.52h4.52v-2.692h-4.52l1.054-2.511h5.977v7.714h-7.031a7.031 7.031 0 0 1 0-14.062h5.977l1.054 2.511h-7.031a4.526 4.526 0 0 0-4.519 4.52z" class="cls-1" transform="translate(-210.986 -182.683)"/>
                <path id="Path_17362" d="M273.026 205.041l-3.163-.7-4.008-7.835-4.008 7.835-3.164.7 7.171-14.062z" class="cls-1" transform="translate(-242.706 -182.683)"/>
                <g id="Group_9469" transform="translate(35.659 8.296)">
                    <path id="Path_17363" d="M317.435 205.173v-13.3l2.511-.576v13.307z" class="cls-3" transform="translate(-317.435 -191.191)"/>
                    <path id="Path_17364" d="M347.71 190.979v14.062l-2.511-1.929-9.039-6.97v7.845l-2.511 1.054v-14.022l2.511 1.929 9.039 6.97v-7.905z" class="cls-3" transform="translate(-328.217 -190.979)"/>
                </g>
            </g>
        </g>
    </g>
</svg>
