<svg xmlns="http://www.w3.org/2000/svg" width="32" height="26" viewBox="0 0 32 26">
    <path fill="#ef4e12" d="M1304.143 1247h-26.286a2.816 2.816 0 0 0-1.882.733.549.549 0 0 0-.093.063.353.353 0 0 0-.022.033 2.892 2.892 0 0 0-.86 2.06v20.222a2.877 2.877 0 0 0 2.857 2.889h26.286a2.877 2.877 0 0 0 2.857-2.889v-20.222a2.877 2.877 0 0 0-2.857-2.889zm-26.286 1.156h26.286a1.686 1.686 0 0 1 .656.133l-13.81 13.964-13.8-13.957a1.683 1.683 0 0 1 .668-.14zm-1.714 21.955v-20.222a1.727 1.727 0 0 1 .205-.805l10.689 10.807-10.763 10.882a1.741 1.741 0 0 1-.131-.662zm28 1.733h-26.286a1.678 1.678 0 0 1-.812-.216l10.8-10.919 2.584 2.613c.01.009.022.012.033.021a.557.557 0 0 0 1.08-.018l2.584-2.613 10.808 10.927a1.679 1.679 0 0 1-.791.205zm1.714-1.733a1.733 1.733 0 0 1-.138.68l-10.779-10.9 10.7-10.823a1.729 1.729 0 0 1 .214.821z" transform="translate(-1275 -1247)"/>
</svg>
