<svg xmlns="http://www.w3.org/2000/svg" width="31.991" height="33.007" viewBox="0 0 31.991 33.007">
    <path fill="#ef4e12" d="M8.588 24.141C4.762 20.19 2.284 16.8 1.013 13.764-.7 9.682-.24 6.2 2.369 3.394a1.073 1.073 0 0 1 .563-.621.323.323 0 0 0 .091-.058L5.046.626a2.155 2.155 0 0 1 3.037 0l4.555 4.7a2.272 2.272 0 0 1 0 3.135l-2.025 2.091a2.271 2.271 0 0 0 0 3.135l8.1 8.361a2.155 2.155 0 0 0 3.036 0l2.025-2.091a2.153 2.153 0 0 1 3.037 0l4.555 4.7a2.271 2.271 0 0 1 0 3.135l-2.025 2.091a.365.365 0 0 0-.056.094 1.073 1.073 0 0 1-.6.581 7.819 7.819 0 0 1-5.64 2.443c-4.005.006-8.598-2.81-14.457-8.86zM3.528 4.283c-2.315 2.39-2.707 5.3-1.2 8.895 1.2 2.857 3.577 6.1 7.273 9.918 5.5 5.675 9.894 8.434 13.442 8.434a6.427 6.427 0 0 0 4.778-2.164l-5.618-5.8a3.505 3.505 0 0 1-4.5-.47L9.6 14.735a3.794 3.794 0 0 1-.456-4.65l-5.617-5.8zm25.3 24.039l1.519-1.568a.756.756 0 0 0 0-1.045l-4.554-4.7a.724.724 0 0 0-1.013 0l-1.519 1.568zM10.107 8.986l1.518-1.566a.759.759 0 0 0 0-1.046L7.07 1.672a.719.719 0 0 0-1.012 0L4.539 3.239z"/>
</svg>
