<svg xmlns="http://www.w3.org/2000/svg" width="26.009" height="38.017" viewBox="0 0 26.009 38.017">
    <path fill="#ef4e12" d="M12.4 37.332C11.894 36.737 0 22.625 0 13.41A13.227 13.227 0 0 1 13 0a13.267 13.267 0 0 1 13.009 13.407c.04 9.218-11.933 23.331-12.443 23.927l-.584.683zM1.53 13.41c0 7.541 9.048 19.246 11.456 22.226 2.42-2.977 11.525-14.683 11.493-22.222A11.737 11.737 0 0 0 13 1.527 11.7 11.7 0 0 0 1.53 13.41zm5.9-.427A5.574 5.574 0 1 1 13 18.546a5.575 5.575 0 0 1-5.57-5.564zm1.531 0A4.043 4.043 0 1 0 13 8.946a4.043 4.043 0 0 0-4.039 4.036z"/>
</svg>
